# xmcd
#
# Track frame offsets:
#	150
#	14358
#	34085
#	45213
#	58444
#	77204
#	90876
#	106172
#	118862
#	133758
#	144205
#	158609
#	171150
#	179716
#	192335
#	205722
#	223441
#	236423
#	251094
#	269203
#
# Disc length: 3798 seconds
#
# Revision: 1
# Processed by: cddbd v1.5.2PL0 Copyright (c) Steve Scherf et al.
# Submitted via: EasyCDDAExtractor 16.0.6.1
#
DISCID=230ed414
DTITLE=Varios - C-078 Transit-Music Country Internet Nº 2
DYEAR=1994
DGENRE=Country
TTITLE0=Brent McAthey - Did I Open My Eyes
TTITLE1=Buck Storm - Jesus Saves
TTITLE2=Home Coocking - Kicking Me
TTITLE3=Yvonne Smith - Kiss Your Heart Goodbye
TTITLE4=Terri Allard - Lose Change And Spare
TTITLE5=Pat James and Christal River - Mama's Prayers
TTITLE6=Anne Minnery - Mr. Piano Man
TTITLE7=Home Coocking - One Beer Away
TTITLE8=Andy Chase - Portales Alice
TTITLE9=Brent McAthey - Raysed On A Gravel Road
TTITLE10=Brent McAthey - Redneck Rock 'n Roll
TTITLE11=Shame On Me  - Kiley Joe Masson
TTITLE12=Elliot Pacetti - Swamp Billy Swing
TTITLE13=Elliot Pacetti - This Evening
TTITLE14=Ricky Line - Truble Is A Woman
TTITLE15=Elliot Pacetti - Wake Up Sleeping Beauty
TTITLE16=Kirk Rundstrom - Whiskey's Gone
TTITLE17=Ricky Line - Whole Lotta Lovin'
TTITLE18=The Home Rangers - William Tell Overture
TTITLE19=Mony Smith - Willows Rain
EXTD=
EXTT0=
EXTT1=
EXTT2=
EXTT3=
EXTT4=
EXTT5=
EXTT6=
EXTT7=
EXTT8=
EXTT9=
EXTT10=
EXTT11=
EXTT12=
EXTT13=
EXTT14=
EXTT15=
EXTT16=
EXTT17=
EXTT18=
EXTT19=
PLAYORDER=
